<?xml version="1.0" encoding="utf-8"?>
<!-- Generator: Adobe Illustrator 23.0.4, SVG Export Plug-In . SVG Version: 6.00 Build 0)  -->
<svg version="1.1" id="Layer_1" xmlns="http://www.w3.org/2000/svg" xmlns:xlink="http://www.w3.org/1999/xlink" x="0px" y="0px"
	 viewBox="0 0 700 700" style="enable-background:new 0 0 700 700;" xml:space="preserve">
<style type="text/css">
	.st0{fill:url(#SVGID_1_);}
	.st1{fill:url(#SVGID_2_);}
	.st2{fill:url(#SVGID_3_);}
	.st3{fill:url(#SVGID_4_);}
	.st4{fill:url(#SVGID_5_);}
	.st5{fill:url(#SVGID_6_);}
	.st6{fill:url(#SVGID_7_);}
	.st7{fill:url(#SVGID_8_);}
	.st8{fill:url(#SVGID_9_);}
	.st9{fill:url(#SVGID_10_);}
	.st10{fill:url(#SVGID_11_);}
	.st11{fill:url(#SVGID_12_);}
	.st12{fill:url(#SVGID_13_);}
	.st13{fill:url(#SVGID_14_);}
	.st14{fill:url(#SVGID_15_);}
	.st15{fill:url(#SVGID_16_);}
	.st16{fill:url(#SVGID_17_);}
	.st17{fill:url(#SVGID_18_);}
	.st18{fill:#6A4528;}
	.st19{fill:url(#SVGID_19_);}
	.st20{fill:#FFFFFF;}
	.st21{fill:url(#SVGID_20_);}
	.st22{fill:url(#SVGID_21_);}
	.st23{fill:url(#SVGID_22_);}
</style>
<g id="background">
</g>
<g id="Shadow_under_T-Bear">
</g>
<g id="Books_x26_apple">
</g>
<g id="Teddy_bear">
	<g id="His_left_arm_1_">
		
			<linearGradient id="SVGID_1_" gradientUnits="userSpaceOnUse" x1="466.0705" y1="392.6184" x2="614.4026" y2="392.6184" gradientTransform="matrix(0.611 1.2823 -1.3948 0.4436 710.0558 -391.0805)">
			<stop  offset="0" style="stop-color:#D48443"/>
			<stop  offset="0.8316" style="stop-color:#E8AF51"/>
		</linearGradient>
		<path class="st0" d="M537.8,570.9c-26.4,8.4-68.1-27.4-93.2-79.9c-25-52.5-23.9-101.9,2.5-110.3c26.4-8.4,68.1,27.4,93.2,79.9
			C565.4,513.1,564.2,562.5,537.8,570.9z"/>
	</g>
	<g id="His_right_arm_1_">
		<g>
			
				<linearGradient id="SVGID_2_" gradientUnits="userSpaceOnUse" x1="462.2965" y1="397.3134" x2="610.6286" y2="397.3134" gradientTransform="matrix(-1.2309 0.7089 0.8965 1.1569 469.3632 -466.0136)">
				<stop  offset="0" style="stop-color:#D48443"/>
				<stop  offset="0.7931" style="stop-color:#E8AF51"/>
			</linearGradient>
			<path class="st1" d="M74,426.5c17,21.9,71.6,16.1,122-12.9c50.4-29,77.5-70.3,60.5-92.3c-17-21.9-71.6-16.1-122,12.9
				C84.1,363.3,57,404.6,74,426.5z"/>
		</g>
	</g>
	<g>
		
			<radialGradient id="SVGID_3_" cx="431.6585" cy="504.1588" r="116.8858" gradientTransform="matrix(1.47 0.4576 -0.3977 1.2774 -121.4793 -375.8008)" gradientUnits="userSpaceOnUse">
			<stop  offset="0.1684" style="stop-color:#E8AF51"/>
			<stop  offset="1" style="stop-color:#D48443"/>
		</radialGradient>
		<path class="st2" d="M472.4,515.5c0.2,89.7-64.4,148.3-206.9,103.9c-145.7-45.4-165.3-131-111.4-203
			c60.1-80.2,119-131.3,206.9-103.9C448.9,339.9,472.2,422.2,472.4,515.5z"/>
		
			<radialGradient id="SVGID_4_" cx="434.8382" cy="505.0844" r="79.803" gradientTransform="matrix(1.47 0.4576 -0.3977 1.2774 -121.4793 -375.8008)" gradientUnits="userSpaceOnUse">
			<stop  offset="0" style="stop-color:#FEEED3"/>
			<stop  offset="0.2404" style="stop-color:#FAE9CB"/>
			<stop  offset="0.609" style="stop-color:#F1DBB6"/>
			<stop  offset="1" style="stop-color:#E3C798"/>
		</radialGradient>
		<path class="st3" d="M420.3,522.6c0.1,64.2-46.1,106.1-148,74.3C168,564.5,154,503.3,192.6,451.8c43-57.4,115.3-96.5,135.8-35
			C382,375.4,420.1,455.9,420.3,522.6z"/>
	</g>
	<g id="Ears_1_">
		<g>
			
				<radialGradient id="SVGID_5_" cx="-117.0639" cy="210.1453" r="82.7315" gradientTransform="matrix(-1.47 -0.4576 -0.3977 1.2774 528.278 -173.5165)" gradientUnits="userSpaceOnUse">
				<stop  offset="0.1684" style="stop-color:#E8AF51"/>
				<stop  offset="1" style="stop-color:#D48443"/>
			</radialGradient>
			<path class="st4" d="M507.4,150.1c-11.3,36.4,13.4,76.5,55.3,89.5c41.9,13,85-5.9,96.4-42.3c11.3-36.4-13.4-76.5-55.3-89.5
				C561.9,94.8,518.8,113.7,507.4,150.1z"/>
			
				<linearGradient id="SVGID_6_" gradientUnits="userSpaceOnUse" x1="-125.8334" y1="223.4453" x2="-99.9151" y2="244.895" gradientTransform="matrix(-1.47 -0.4576 -0.3977 1.2774 528.278 -173.5165)">
				<stop  offset="0.1004" style="stop-color:#965C2B"/>
				<stop  offset="1" style="stop-color:#6A4528"/>
			</linearGradient>
			<path class="st5" d="M528.4,168.2c-7.7,24.8,9.1,52,37.6,60.9c28.5,8.9,57.9-4,65.6-28.8s-9.1-52-37.6-60.9
				C565.5,130.6,536.1,143.4,528.4,168.2z"/>
		</g>
		<g>
			
				<radialGradient id="SVGID_7_" cx="306.6692" cy="210.1453" r="82.7318" gradientTransform="matrix(1.47 0.4576 -0.3977 1.2774 -121.4793 -375.8008)" gradientUnits="userSpaceOnUse">
				<stop  offset="0.1684" style="stop-color:#E8AF51"/>
				<stop  offset="1" style="stop-color:#D48443"/>
			</radialGradient>
			<path class="st6" d="M334.8,96.4c-11.3,36.4-54.5,55.3-96.4,42.3s-66.6-53.1-55.3-89.5c11.3-36.4,54.5-55.3,96.4-42.3
				C321.4,19.9,346.2,60,334.8,96.4z"/>
			
				<linearGradient id="SVGID_8_" gradientUnits="userSpaceOnUse" x1="297.9002" y1="223.4454" x2="323.8186" y2="244.8951" gradientTransform="matrix(1.47 0.4576 -0.3977 1.2774 -121.4793 -375.8008)">
				<stop  offset="0.1004" style="stop-color:#965C2B"/>
				<stop  offset="1" style="stop-color:#6A4528"/>
			</linearGradient>
			<path class="st7" d="M307.3,99.4c-7.7,24.8-37.1,37.7-65.6,28.8S196.4,92,204.1,67.3s37.1-37.7,65.6-28.8
				C298.2,47.4,315,74.6,307.3,99.4z"/>
		</g>
	</g>
	<g id="Head_1_">
		
			<radialGradient id="SVGID_9_" cx="434.7357" cy="250.0036" r="180.6142" gradientTransform="matrix(1.47 0.4576 -0.3977 1.2774 -121.4793 -375.8008)" gradientUnits="userSpaceOnUse">
			<stop  offset="0.1684" style="stop-color:#F7BE60"/>
			<stop  offset="1" style="stop-color:#D48443"/>
		</radialGradient>
		<path class="st8" d="M441.2,63c110.5,34.4,178,132.8,150.9,219.8c-27.1,87-138.6,129.7-249,95.3S165,245.4,192.1,158.3
			S330.7,28.6,441.2,63z"/>
	</g>
	<g id="His_left_paw_1_">
		
			<radialGradient id="SVGID_10_" cx="491.1715" cy="658.6053" r="52.6139" gradientTransform="matrix(1.4691 -0.2518 0.3275 1.0887 -543.893 2.3191)" gradientUnits="userSpaceOnUse">
			<stop  offset="0.1684" style="stop-color:#E8AF51"/>
			<stop  offset="1" style="stop-color:#D48443"/>
		</radialGradient>
		<path class="st9" d="M475.7,612.8c11.2,37.1-20.4,74.1-70.4,82.7c-50,8.6-99.7-14.5-110.8-51.6c-11.2-37.1,20.4-74.1,70.4-82.7
			C415,552.5,464.6,575.7,475.7,612.8z"/>
		
			<radialGradient id="SVGID_11_" cx="488.9595" cy="662.092" r="42.6452" gradientTransform="matrix(1.4691 -0.2518 0.3275 1.0887 -543.3422 4.1501)" gradientUnits="userSpaceOnUse">
			<stop  offset="0" style="stop-color:#FEEED3"/>
			<stop  offset="0.2404" style="stop-color:#FAE9CB"/>
			<stop  offset="0.609" style="stop-color:#F1DBB6"/>
			<stop  offset="1" style="stop-color:#E3C798"/>
		</radialGradient>
		<path class="st10" d="M458.6,615.7c9.1,30.1-16.5,60.1-57.1,67c-40.6,6.9-80.8-11.8-89.8-41.9c-9.1-30.1,16.5-60.1,57.1-67
			C409.3,566.9,449.5,585.6,458.6,615.7z"/>
	</g>
	<g id="His_right_paw_1_">
		
			<radialGradient id="SVGID_12_" cx="359.8281" cy="552.511" r="52.6158" gradientTransform="matrix(1.0957 1.017 -0.8634 0.7333 269.6337 -224.021)" gradientUnits="userSpaceOnUse">
			<stop  offset="0.1684" style="stop-color:#E8AF51"/>
			<stop  offset="1" style="stop-color:#D48443"/>
		</radialGradient>
		<path class="st11" d="M218.1,618c-29.4,25-83.5,17.2-120.9-17.5c-37.3-34.6-43.7-83-14.3-108c29.4-25,83.5-17.2,120.9,17.5
			C241.1,544.6,247.5,593,218.1,618z"/>
		
			<radialGradient id="SVGID_13_" cx="357.6174" cy="555.998" r="42.6471" gradientTransform="matrix(1.0957 1.017 -0.8634 0.7333 268.1813 -222.7876)" gradientUnits="userSpaceOnUse">
			<stop  offset="0" style="stop-color:#FEEED3"/>
			<stop  offset="0.2404" style="stop-color:#FAE9CB"/>
			<stop  offset="0.609" style="stop-color:#F1DBB6"/>
			<stop  offset="1" style="stop-color:#E3C798"/>
		</radialGradient>
		<path class="st12" d="M205.3,606.1c-23.9,20.3-67.7,13.9-98-14.2c-30.2-28.1-35.4-67.3-11.6-87.5c23.9-20.3,67.7-13.9,98,14.2
			S229.1,585.8,205.3,606.1z"/>
	</g>
	<g id="Muzzle_1_">
		<g>
			
				<radialGradient id="SVGID_14_" cx="433.6685" cy="348.0482" r="55.415" gradientTransform="matrix(1.47 0.4576 -0.3977 1.2774 -121.4793 -375.8008)" gradientUnits="userSpaceOnUse">
				<stop  offset="0" style="stop-color:#FEEED3"/>
				<stop  offset="0.2404" style="stop-color:#FAE9CB"/>
				<stop  offset="0.609" style="stop-color:#F1DBB6"/>
				<stop  offset="1" style="stop-color:#E3C798"/>
			</radialGradient>
			<path class="st13" d="M448.1,321.3c-9.8,31.4-53.4,45.8-97.3,32.1c-44-13.7-71.7-50.3-61.9-81.7s53.4-45.8,97.3-32.1
				C430.2,253.4,457.9,289.9,448.1,321.3z"/>
			
				<radialGradient id="SVGID_15_" cx="412.8766" cy="347.0993" r="24.9343" gradientTransform="matrix(1.8423 0.5736 -0.3977 1.2774 -243.3055 -413.7281)" gradientUnits="userSpaceOnUse">
				<stop  offset="0.1004" style="stop-color:#965C2B"/>
				<stop  offset="1" style="stop-color:#6A4528"/>
			</radialGradient>
			<path class="st14" d="M420.9,290.3c-4.5,14.5-31.2,27.5-56.5,19.6c-25.4-7.9-39.9-33.8-35.4-48.3c4.5-14.5,28.7-19.8,54.1-11.9
				C408.4,257.7,425.4,275.8,420.9,290.3z"/>
			
				<radialGradient id="SVGID_16_" cx="435" cy="401.9811" r="34.3355" gradientTransform="matrix(1.47 0.4576 -0.3977 1.2774 -121.4793 -375.8008)" gradientUnits="userSpaceOnUse">
				<stop  offset="0.1004" style="stop-color:#965C2B"/>
				<stop  offset="1" style="stop-color:#6A4528"/>
			</radialGradient>
			<path class="st15" d="M426.7,332.3c-17.9,9.5-42.9,11.7-68.3,4.3l8.1-26.1l-4.5-1.4l-8.1,26.1c-25.1-8.4-44.4-24.4-53.8-42.3
				l-6-1.9c9.4,21,31.6,39.9,60.7,49c29.1,9.1,58.1,6.1,77.8-5.9L426.7,332.3z"/>
		</g>
	</g>
	<g id="Eye__x26__brow_3_">
		
			<linearGradient id="SVGID_17_" gradientUnits="userSpaceOnUse" x1="336.4373" y1="251.2787" x2="314.6913" y2="318.108" gradientTransform="matrix(-1.47 -0.4576 -0.3977 1.2774 925.4404 -49.8707)">
			<stop  offset="0.1649" style="stop-color:#E0C9A1"/>
			<stop  offset="0.2941" style="stop-color:#E6D4B4"/>
			<stop  offset="0.6051" style="stop-color:#F4EBDD"/>
			<stop  offset="0.8512" style="stop-color:#FCFAF6"/>
			<stop  offset="1" style="stop-color:#FFFFFF"/>
		</linearGradient>
		<path class="st16" d="M292.6,189.8c1.8,21.4,22.3,38.7,45.8,38.8c23.5,0.1,41-17.2,39.1-38.6s-22.3-38.7-45.8-38.8
			C308.3,151.2,290.8,168.4,292.6,189.8z"/>
		
			<linearGradient id="SVGID_18_" gradientUnits="userSpaceOnUse" x1="396.4596" y1="274.5479" x2="368.8804" y2="289.6634" gradientTransform="matrix(1.47 0.4576 -0.3977 1.2774 -121.4793 -375.8008)">
			<stop  offset="0.1004" style="stop-color:#965C2B"/>
			<stop  offset="1" style="stop-color:#6A4528"/>
		</linearGradient>
		<path class="st17" d="M301.8,164c0,0,13.6-4.1,30.7-4.1c17.1-0.1,31.3,3.9,31.3,3.9s-15.1-13.2-32.2-13.2
			C314.4,150.6,301.8,164,301.8,164z"/>
		<g id="eye_3_">
			<path class="st18" d="M350.7,206.6c-1.6,5.1-7.6,7.8-13.5,5.9c-5.9-1.8-9.4-7.5-7.8-12.6c1.6-5.1,7.6-7.8,13.5-5.9
				C348.8,195.9,352.3,201.5,350.7,206.6z"/>
			
				<linearGradient id="SVGID_19_" gradientUnits="userSpaceOnUse" x1="398.1406" y1="304.7385" x2="396.6652" y2="312.258" gradientTransform="matrix(1.47 0.4576 -0.3977 1.2774 -121.4793 -375.8008)">
				<stop  offset="0" style="stop-color:#8F3A18"/>
				<stop  offset="1" style="stop-color:#000000;stop-opacity:0"/>
			</linearGradient>
			<path class="st19" d="M346.8,204.2c-1.2,3.7-5.6,5.7-9.9,4.3c-4.3-1.3-6.8-5.5-5.7-9.2c1.2-3.7,5.6-5.7,9.9-4.3
				C345.5,196.4,348,200.5,346.8,204.2z"/>
			<path class="st20" d="M339.9,201c-0.6,2-3,3.1-5.3,2.3c-2.3-0.7-3.7-2.9-3.1-4.9s3-3.1,5.3-2.3C339.2,196.8,340.6,199,339.9,201z
				"/>
			<path class="st20" d="M344.3,210.8c-0.2,0.8-1.2,1.2-2.1,0.9c-0.9-0.3-1.5-1.2-1.2-2c0.2-0.8,1.2-1.2,2.1-0.9
				C344,209.2,344.5,210,344.3,210.8z"/>
		</g>
	</g>
	<g id="Eye__x26__brow_2_">
		
			<linearGradient id="SVGID_20_" gradientUnits="userSpaceOnUse" x1="491.6807" y1="251.9875" x2="469.9346" y2="318.8172" gradientTransform="matrix(1.47 0.4576 -0.3977 1.2774 -121.4793 -375.8008)">
			<stop  offset="0.1649" style="stop-color:#E0C9A1"/>
			<stop  offset="0.2941" style="stop-color:#E6D4B4"/>
			<stop  offset="0.6051" style="stop-color:#F4EBDD"/>
			<stop  offset="0.8512" style="stop-color:#FCFAF6"/>
			<stop  offset="1" style="stop-color:#FFFFFF"/>
		</linearGradient>
		<path class="st21" d="M491.4,252.7c-13.6,16.5-40.4,19.2-59.7,6c-19.4-13.3-24-37.4-10.3-54s40.4-19.2,59.7-6
			C500.4,212,505,236.1,491.4,252.7z"/>
		
			<linearGradient id="SVGID_21_" gradientUnits="userSpaceOnUse" x1="468.1971" y1="274.0266" x2="499.7547" y2="289.6728" gradientTransform="matrix(1.47 0.4576 -0.3977 1.2774 -121.4793 -375.8008)">
			<stop  offset="0.1004" style="stop-color:#965C2B"/>
			<stop  offset="1" style="stop-color:#6A4528"/>
		</linearGradient>
		<path class="st22" d="M498.6,226.3c0,0-8.9-11.1-22.9-20.8c-14-9.8-28-14.6-28-14.6s20-2.3,34,7.5
			C495.9,208.1,498.6,226.3,498.6,226.3z"/>
		<g id="eye_2_">
			
				<ellipse transform="matrix(0.2973 -0.9548 0.9548 0.2973 93.4498 603.5971)" class="st18" cx="456.8" cy="238.3" rx="9.7" ry="11.1"/>
			
				<linearGradient id="SVGID_22_" gradientUnits="userSpaceOnUse" x1="477.6037" y1="303.6671" x2="476.1284" y2="311.1866" gradientTransform="matrix(1.47 0.4576 -0.3977 1.2774 -121.4793 -375.8008)">
				<stop  offset="0" style="stop-color:#8F3A18"/>
				<stop  offset="1" style="stop-color:#000000;stop-opacity:0"/>
			</linearGradient>
			<path class="st23" d="M464.1,239.2c-1.2,3.7-5.6,5.7-9.9,4.3s-6.8-5.5-5.7-9.2c1.2-3.7,5.6-5.7,9.9-4.3
				C462.7,231.4,465.2,235.5,464.1,239.2z"/>
			<path class="st20" d="M456.5,236c-0.6,2-3,3.1-5.3,2.3c-2.3-0.7-3.7-2.9-3.1-4.9c0.6-2,3-3.1,5.3-2.3
				C455.8,231.7,457.2,234,456.5,236z"/>
			<path class="st20" d="M460.8,245.8c-0.2,0.8-1.2,1.2-2.1,0.9c-0.9-0.3-1.5-1.2-1.2-2c0.2-0.8,1.2-1.2,2.1-0.9
				C460.6,244.1,461.1,245,460.8,245.8z"/>
		</g>
	</g>
</g>
<g id="Graduation_hat">
</g>
</svg>
